<?xml version="1.0"?><svg version="1.2" baseProfile="tiny-ps" viewBox="0 0 300 300" xmlns="http://www.w3.org/2000/svg" xmlns:xlink="http://www.w3.org/1999/xlink"><title>RMTsvglogo</title><g><g fill="#fffffe" transform="matrix(.1 0 0 -.1 0 300)"><path d="M0 1500V0h3000v3000H0V1500z"/></g><g fill="#f7e9a6" transform="matrix(.1 0 0 -.1 0 300)"><path d="m299 1727-44-23-31-46-32-47-6-44-7-45 12-45 11-46 36-42 36-42 40-18 41-19h101l52 26 51 25 30 46 30 45 7 44 6 44-6 34-7 35-32 47-32 48-44 23-44 23H343l-44-23zm2434-60c-57-28-103-55-103-59 0-5 12-8 27-8h26l-6-7c-4-3-29-5-57-4l-50 1v-250h70v68l44-5 44-5 26 25 26 26 1 48v48l16-32c9-18 20-33 24-33 3 0 9 33 13 73 4 39 9 93 13 120l6 47-9-1c-5 0-55-23-111-52zm37-97c6-11 9-20 7-20s-12 9-22 20l-18 20h11c6 0 16-9 22-20zm-72-42c7-7 12-22 12-35v-24l-16-6-17-6-16 10c-9 6-17 17-19 25l-3 16 16 16c20 19 27 20 43 4zm-1338 2v-130h70v24c0 14 4 27 9 30l9 6 26-31 26-30 41 3 41 3-42 53-43 53 39 40 38 39h-88l-28-27-28-27v124h-70v-130zm-693 113c-4-3-7-60-7-125v-118h80v60h36l17-30 18-30h80l-10 18c-5 9-16 26-25 37l-15 20 21 22 20 21v73l-13 16c-8 9-28 22-46 30l-32 13h-59c-32 0-62-3-65-7zm124-63 19-11v-28l-19-11c-11-5-27-10-35-10h-16v70h16c8 0 24-5 35-10zm803 57c-2-7-3-62-2-123l3-109 32-3 32-3 3 58 3 58 28-48 29-48 16 3 17 3 25 45 25 45 3-57 3-58h70l-3 123-3 122-27 3-28 3-27-47c-16-25-35-55-43-66l-15-19-42 65-42 66h-52l-5-13zm523 6c-4-3-7-17-7-30v-23h69l3-92 3-93 37-3 37-3 3 93 3 93 33 3 32 3v59h-103c-57 0-107-3-110-7zm-1165-53c-43-10-46-14-32-40l11-21 29 6 29 6 18-10 18-10-27-1c-82-1-124-54-79-99l20-20h151v146l-22 20-23 21-30 5c-16 3-45 2-63-3zm66-122c-3-7-14-14-26-16l-22-3v9c0 14 12 22 33 22h19l-4-12zm219 126c-3-4-31-6-62-5l-56 1 3-93 3-92 37-3 37-3 3 63 3 63 22 3 22 3 3-63 3-63 39-3 38-3-4 75-3 76-20 19c-11 10-29 22-41 25l-20 6-7-6zm739-5c-37-10-63-34-71-66l-6-25 11-32 10-32 29-17 29-17h78l20 14 19 15-11 18-11 18-41-3-40-4-7 11-6 11h131v50l-27 29-28 29-25 5c-14 3-38 1-54-4zm59-59 6-10h-62l6 10c3 6 15 10 25 10s22-4 25-10zm368 59-32-9-16-22-15-22v-84l31-26 31-26h73l32 20 32 19 7 36 7 37-11 23c-13 28-46 51-82 59l-25 5-32-10zm62-65 16-16-3-16c-2-8-10-19-19-25l-16-10-17 6-16 6v24c0 22 16 47 31 47 4 0 15-7 24-16z"/></g><g fill="#fac82a" transform="matrix(.1 0 0 -.1 0 300)"><path d="m309 1723-54-28-29-42-30-43-4-60-4-60 26-54 26-53 42-29 41-29 71-3 71-4 45 25 45 24 29 41 30 42 4 60 4 61-17 44-17 45-39 33-39 34-39 11c-21 7-54 12-73 12h-34l-55-27zm2425-62-99-48 50-7c28-4 57-8 65-9l15-2 26-55 26-54 6 24c8 35 20 200 15 200-3 0-49-22-104-49zm-1374-131v-130h70v24c0 14 4 27 9 30l9 6 26-31 26-30 41 3 41 3-42 53-43 53 39 40 38 39h-88l-28-27-28-27v124h-70v-130zm-693 113c-4-3-7-60-7-125v-118h80v60h36l17-30 18-30h80l-10 18c-5 9-16 26-25 37l-15 20 21 22 20 21v73l-13 16c-8 9-28 22-46 30l-32 13h-59c-32 0-62-3-65-7zm124-63 19-11v-28l-19-11c-11-5-27-10-35-10h-16v70h16c8 0 24-5 35-10zm803 57c-2-7-3-62-2-123l3-109 32-3 32-3 3 58 3 58 28-48 29-48 16 3 17 3 25 45 25 45 3-57 3-58h70l-3 123-3 122-27 3-28 3-27-47c-16-25-35-55-43-66l-15-19-42 65-42 66h-52l-5-13zm526-22v-25h70v-180h60v180h80v50h-210v-25zm-1168-25c-43-10-46-14-32-40l11-21 29 6 29 6 18-10 18-10-27-1c-82-1-124-54-79-99l20-20h151v146l-22 20-23 21-30 5c-16 3-45 2-63-3zm66-122c-3-7-14-14-26-16l-22-3v9c0 14 12 22 33 22h19l-4-12zm219 126c-3-4-31-6-62-5l-56 1 3-93 3-92 37-3 37-3 3 63 3 63 22 3 22 3 3-63 3-63 39-3 38-3-4 75-3 76-20 19c-11 10-29 22-41 25l-20 6-7-6zm739-5c-37-10-63-34-71-66l-6-25 11-32 10-32 29-17 29-17h78l20 14 19 15-11 18-11 18-41-3-40-4-7 11-6 11h131v50l-27 29-28 29-25 5c-14 3-38 1-54-4zm59-59 6-10h-62l6 10c3 6 15 10 25 10s22-4 25-10zm365 53c-28-10-49-35-55-65l-7-29 12-28 11-28 22-11c12-6 32-13 44-17l22-6 34 15 35 14 11 20c6 12 11 36 11 55v35l-31 26-31 26-31-1c-18 0-39-3-47-6zm78-79 3-31-15-12-15-13-20 7-21 6-6 25-6 24 13 16 12 15 26-3 26-3 3-31zm102-40v-124h60v80l25-10 26-10 35 15 34 14 10 26c6 15 10 38 10 51v26l-28 28-29 28h-71l-72-1v-123zm130 61 12-15-6-24-6-25-21-6-20-7-14 12c-16 13-19 38-9 64l6 16h46l12-15z"/></g><g fill="silver" transform="matrix(.1 0 0 -.1 0 300)"><path d="m350 1602-135-66 92-9 91-9 38-81 38-82 7 60c4 33 11 104 14 158l8 97-9-1c-5 0-70-30-144-67zm1010-72v-130h70v24c0 14 4 27 9 30l9 6 26-31 26-30 41 3 41 3-42 53-43 53 39 40 38 39h-88l-28-27-28-27v124h-70v-130zm-693 113c-4-3-7-60-7-125v-118h80v60h36l17-30 18-30h80l-10 18c-5 9-16 26-25 37l-15 20 21 22 20 21v73l-13 16c-8 9-28 22-46 30l-32 13h-59c-32 0-62-3-65-7zm124-63 19-11v-28l-19-11c-11-5-27-10-35-10h-16v70h16c8 0 24-5 35-10zm803 57c-2-7-3-62-2-123l3-109 32-3 32-3 3 58 3 58 28-48 29-48 16 3 17 3 25 45 25 45 3-57 3-58h70l-3 123-3 122-27 3-28 3-27-47c-16-25-35-55-43-66l-15-19-42 65-42 66h-52l-5-13zm-642-47c-43-10-46-14-32-40l11-21 29 6 29 6 18-10 18-10-27-1c-82-1-124-54-79-99l20-20h151v146l-22 20-23 21-30 5c-16 3-45 2-63-3zm66-122c-3-7-14-14-26-16l-22-3v9c0 14 12 22 33 22h19l-4-12zm219 126c-3-4-31-6-62-5l-56 1 3-93 3-92 37-3 37-3 3 63 3 63 22 3 22 3 3-63 3-63 39-3 38-3-4 75-3 76-20 19c-11 10-29 22-41 25l-20 6-7-6zm739-5c-37-10-63-34-71-66l-6-25 11-32 10-32 29-17 29-17h78l20 14 19 15-11 18-11 18-41-3-40-4-7 11-6 11h131v50l-27 29-28 29-25 5c-14 3-38 1-54-4zm59-59 6-10h-62l6 10c3 6 15 10 25 10s22-4 25-10z"/></g><g fill="#6a675f" transform="matrix(.1 0 0 -.1 0 300)"><path d="m350 1602-135-66 92-9 91-9 38-81 38-82 7 60c4 33 11 104 14 158l8 97-9-1c-5 0-70-30-144-67zm1012-69 3-128h60l3 25c2 14 7 29 11 33l8 8 27-36 27-35h35c18 0 34 3 34 8 0 4-16 27-35 51s-35 47-35 51c0 3 14 19 30 35 17 16 30 32 30 37v8h-64l-33-32-33-32v134h-71l3-127zm-692-14v-120l33 3 32 3 3 33 3 32h13c8 0 26-16 40-35l27-35h30c34 0 35 5 10 44l-20 30 20 24 19 25v68l-25 24-24 25H670v-121zm124 65 16-6v-46l-16-6c-9-3-24-6-35-6h-19v70h19c11 0 26-3 35-6zm806-64v-120h60v125l30-47 30-48h35l25 47 25 48 5-60 5-60 28-3 27-3v241h-56l-38-66-38-67-41 67-42 66h-55v-120zm-673 59-17-10 9-17 10-17h84l4-12 5-13h-92l-16-25-16-25 16-25 16-25 26-6 25-7 25 12 24 11v-21l28 3 27 3v147l-24 19-23 19h-47l-46-1-18-10zm93-113v-14l-17-6-16-7-10 10-9 9 6 11c4 6 16 11 27 11h19v-14zm110 28v-94h60v109l16 15c19 19 26 20 42 4l12-12v-116h60v150l-19 19-20 20-75-1h-76v-94zm825 84c-11-6-25-19-32-27l-12-16-1-33c0-44 14-68 50-87 35-18 70-19 105-3 28 13 31 21 11 37l-13 11-29-6-29-5-20 15-20 15 73 1h72v15c0 25-28 73-49 85-26 13-81 12-106-2zm85-53c0-3-17-5-37-5l-38 1 19 14 19 14 18-10c11-5 19-12 19-14z"/></g><g fill="#050504" transform="matrix(.1 0 0 -.1 0 300)"><path d="m365 1606-130-62 18-7c10-4 38-7 62-7s55-4 68-9l24-9 28-67 28-66 7 8c7 8 33 274 27 279-1 1-61-25-132-60zm1005-76v-120h50v19c0 10 6 24 14 30l14 12 25-31 26-30h30c17 0 31 3 31 6 0 4-16 27-36 51l-37 45 39 39 38 39h-70l-29-30c-16-16-32-30-37-30h-8v120h-50v-120zm-700-5v-115h60v60h46l17-30 18-30h70l-20 29c-26 36-26 37-1 68l20 26v49l-29 29-29 29H670v-115zm141 49 13-16-11-16-10-17-37-3-36-3v71h68l13-16zm789-49v-115h59l3 58 3 57 28-47 29-48h28l30 53 30 52v-47c0-25 3-53 6-62l6-16h48v231l-27-3-27-3-36-62c-19-35-38-63-42-63s-24 29-45 65l-38 65h-55v-115zm-657 55c-25-10-26-11-17-34l6-15 23 9 23 9 21-6 21-5v-28h-36c-19 0-44-5-55-10l-19-11v-55l12-12 12-12h72l12 12 12 12v-24h50v68c0 37-4 72-8 78-20 31-83 42-129 24zm77-120-11-20h-37l-5 14c-8 19 1 26 35 26h29l-11-20zm110 40v-90h59l3 56 3 57 16 10 16 10 17-6 16-6v-121h60v139l-26 20c-29 23-55 26-85 11l-19-11v21h-60v-90zm834 80c-12-5-29-19-38-32l-16-22v-63l26-27 27-26h88l20 11 20 10-11 14-11 13-37-5-38-5-13 16-13 16h132v28c-1 62-70 99-136 72zm74-42c7-7 12-16 12-20v-8h-80v8c0 14 23 32 40 32 9 0 21-5 28-12z"/></g></g></svg>
